<svg xmlns="http://www.w3.org/2000/svg" version="1.1" xmlns:xlink="http://www.w3.org/1999/xlink" xmlns:svgjs="http://svgjs.dev/svgjs" width="1500" height="1500" viewBox="0 0 1500 1500"><g transform="matrix(1,0,0,1,-0.21332335329316265,-0.21332335329350371)"><svg viewBox="0 0 334 334" data-background-color="#ffffff" preserveAspectRatio="xMidYMid meet" height="1500" width="1500" xmlns="http://www.w3.org/2000/svg" xmlns:xlink="http://www.w3.org/1999/xlink"><g id="tight-bounds" transform="matrix(1,0,0,1,0.04749999999998522,0.04750000000001364)"><svg viewBox="0 0 333.90454557049503 333.90454557049503" height="333.90454557049503" width="333.90454557049503"><g><svg></svg></g><g><svg viewBox="0 0 333.90454557049503 333.90454557049503" height="333.90454557049503" width="333.90454557049503"><g><path d="M0 166.952c0-92.205 74.747-166.952 166.952-166.952 92.205 0 166.952 74.747 166.953 166.952 0 92.205-74.747 166.952-166.953 166.953-92.205 0-166.952-74.747-166.952-166.953zM166.952 327.306c88.561 0 160.354-71.793 160.354-160.354 0-88.561-71.793-160.354-160.354-160.354-88.561 0-160.354 71.793-160.354 160.354 0 88.561 71.793 160.354 160.354 160.354z" data-fill-palette-color="tertiary" fill="#0c0a0f" stroke="transparent"></path><ellipse rx="160.27418187383762" ry="160.27418187383762" cx="166.95227278524752" cy="166.95227278524752" fill="#0c0a0f" stroke="transparent" stroke-width="0" fill-opacity="1" data-fill-palette-color="tertiary"></ellipse></g><g transform="matrix(1,0,0,1,83.25292747924068,71.17305217166896)"><svg viewBox="0 0 167.39869061201367 191.55844122715712" height="191.55844122715712" width="167.39869061201367"><g><svg viewBox="0 0 167.39869061201367 191.55844122715712" height="191.55844122715712" width="167.39869061201367"><g><svg viewBox="0 0 213.1584412271571 243.9224499701935" height="191.55844122715712" width="167.39869061201367"><g transform="matrix(1,0,0,1,0,150.75385976494601)"><svg viewBox="0 0 213.1584412271571 93.16859020524747" height="93.16859020524747" width="213.1584412271571"><g id="textblocktransform"><svg viewBox="0 0 213.1584412271571 93.16859020524747" height="93.16859020524747" width="213.1584412271571" id="textblock"><g><svg viewBox="0 0 213.1584412271571 93.16859020524747" height="93.16859020524747" width="213.1584412271571"><g transform="matrix(1,0,0,1,0,0)"><svg width="213.1584412271571" viewBox="3 -36.3 83.05 36.3" height="93.16859020524747" data-palette-color="#dbdbdb"><path d="M8.8 0L3 0 3-25.5 8.8-25.5 8.8 0ZM22.05 0L16.25 0 16.25-16.95 22.05-16.95 22.05 0ZM8.8-16.65L6.7-16.65Q6.7-19.4 7.68-21.6 8.65-23.8 10.33-25.05 12-26.3 14.15-26.3L14.15-26.3 12.55-21.5Q10.9-21.5 9.85-20.18 8.8-18.85 8.8-16.65L8.8-16.65ZM22.05-16.95L16.25-16.95Q16.25-19 15.23-20.25 14.2-21.5 12.55-21.5L12.55-21.5 14.15-26.3Q16.4-26.3 18.2-25.08 20-23.85 21.03-21.73 22.05-19.6 22.05-16.95L22.05-16.95ZM35.3 0L29.5 0 29.5-16.95 35.3-16.95 35.3 0ZM22.05-16.65L19.95-16.65Q19.95-19.4 20.93-21.6 21.9-23.8 23.58-25.05 25.25-26.3 27.4-26.3L27.4-26.3 25.8-21.5Q24.15-21.5 23.1-20.18 22.05-18.85 22.05-16.65L22.05-16.65ZM35.3-16.95L29.5-16.95Q29.5-19 28.48-20.25 27.45-21.5 25.8-21.5L25.8-21.5 27.4-26.3Q29.65-26.3 31.45-25.08 33.25-23.85 34.27-21.73 35.3-19.6 35.3-16.95L35.3-16.95ZM57.75-6.55L45-6.55 45-11.3 57.75-11.3 57.75-6.55ZM47.8-35.5L53.45-35.5 44.7 0 39.05 0 47.8-35.5ZM47.9-35.5L53.55-35.5 62.25 0 56.6 0 47.9-35.5ZM86.05 0L79.95 0 70.95-14.05 76.65-15.5 86.05 0ZM85.4-25.5L71.75-8.5 67.1-10.85 78.7-25.5 85.4-25.5ZM72.55 0L66.75 0 66.75-36.3 72.55-36.3 72.55 0Z" opacity="1" transform="matrix(1,0,0,1,0,0)" fill="#dbdbdb" class="wordmark-text-0" data-fill-palette-color="quaternary" id="text-0"></path></svg></g></svg></g></svg></g></svg></g><g transform="matrix(1,0,0,1,42.19972478175255,0)"><svg viewBox="0 0 128.758991663652 128.758991663652" height="128.758991663652" width="128.758991663652"><g><svg xmlns="http://www.w3.org/2000/svg" xmlns:xlink="http://www.w3.org/1999/xlink" version="1.0" x="0" y="0" viewBox="10 10 80 80" enable-background="new 0 0 100 100" xml:space="preserve" height="128.758991663652" width="128.758991663652" class="icon-icon-0" data-fill-palette-color="quaternary" id="icon-0"><path fill="none" stroke="#dbdbdb" stroke-linecap="round" stroke-linejoin="round" stroke-miterlimit="10" d="M78.33 56.667L80.275 72.222z"></path><path fill="none" stroke="#dbdbdb" stroke-linecap="round" stroke-linejoin="round" stroke-miterlimit="10" d="M75.689 22.862V19.705C75.021 14.236 70.37 10 64.722 10 59.075 10 54.424 14.235 53.754 19.704V22.861A3.675 3.675 0 0 0 51.293 26.322C51.293 29.467 52.889 32.011 54.875 32.1 56.703 37.731 60.424 41.596 64.722 41.596S72.738 37.732 74.568 32.1C76.554 32.011 78.151 29.467 78.151 26.322 78.15 24.721 77.118 23.371 75.689 22.862"></path><path fill="none" stroke="#dbdbdb" stroke-linecap="round" stroke-linejoin="round" stroke-miterlimit="10" d="M63.359 24.58H56.553V26.525C56.553 27.596 57.43 28.472 58.499 28.472H61.416A1.95 1.95 0 0 0 63.358 26.525z"></path><path fill="none" stroke="#dbdbdb" stroke-linecap="round" stroke-linejoin="round" stroke-miterlimit="10" d="M56.554 24.58L53.754 22.862z"></path><path fill="none" stroke="#dbdbdb" stroke-linecap="round" stroke-linejoin="round" stroke-miterlimit="10" d="M66.081 24.58H72.887V26.525A1.95 1.95 0 0 1 70.943 28.472H68.027A1.95 1.95 0 0 1 66.082 26.525z"></path><path fill="none" stroke="#dbdbdb" stroke-linecap="round" stroke-linejoin="round" stroke-miterlimit="10" d="M72.889 24.58L75.69 22.862z"></path><path fill="none" stroke="#dbdbdb" stroke-linecap="round" stroke-linejoin="round" stroke-miterlimit="10" d="M63.359 24.58H66.081z"></path><path fill="none" stroke="#dbdbdb" stroke-linecap="round" stroke-linejoin="round" stroke-miterlimit="10" d="M62.292 35.745"></path><path fill="none" stroke="#dbdbdb" stroke-linecap="round" stroke-linejoin="round" stroke-miterlimit="10" d="M75.689 22.862A10.97 10.97 0 0 1 67.909 19.641H67.909A10.96 10.96 0 0 0 60.132 16.419C56.61 16.419 53.754 19.304 53.754 22.862V19.705C54.424 14.236 59.074 10 64.722 10S75.021 14.235 75.69 19.704V22.862z"></path><path fill="none" stroke="#dbdbdb" stroke-linecap="round" stroke-linejoin="round" stroke-miterlimit="10" d="M64.722 48.889A9.7 9.7 0 0 0 72.556 44.908 5.2 5.2 0 0 1 71.11 43.906 5.16 5.16 0 0 1 69.59 40.238V39.809C68.121 40.948 66.471 41.597 64.722 41.597 62.974 41.597 61.324 40.948 59.856 39.809V40.238A5.17 5.17 0 0 1 58.335 43.906 5.2 5.2 0 0 1 56.886 44.905C58.656 47.317 61.503 48.889 64.722 48.889"></path><path fill="none" stroke="#dbdbdb" stroke-linecap="round" stroke-linejoin="round" stroke-miterlimit="10" d="M72.792 45.033C72.708 44.999 72.637 44.944 72.556 44.908A9.697 9.697 0 0 1 56.886 44.905C56.808 44.945 56.735 44.997 56.65 45.033L53.235 46.448C55.65 50.248 59.886 52.778 64.721 52.778 69.558 52.778 73.793 50.249 76.21 46.448z"></path><path fill="none" stroke="#dbdbdb" stroke-linecap="round" stroke-linejoin="round" stroke-miterlimit="10" d="M58.889 85.556H10V87.78A2.23 2.23 0 0 0 12.223 90H56.667A2.227 2.227 0 0 0 58.889 87.779z"></path><path fill="none" stroke="#dbdbdb" stroke-linecap="round" stroke-linejoin="round" stroke-miterlimit="10" d="M58.889 82.219C58.889 84.052 57.389 85.552 55.556 85.552H13.335A3.344 3.344 0 0 1 10 82.219V57.774C10 55.941 11.5 54.439 13.335 54.439H55.556A3.345 3.345 0 0 1 58.889 57.774z"></path><path fill="none" stroke="#dbdbdb" stroke-linecap="round" stroke-linejoin="round" stroke-miterlimit="10" d="M55.556 54.439A3.345 3.345 0 0 1 58.889 57.774V72.221H90L89.996 57.395C89.996 54.926 88.996 52.691 87.382 51.074L76.21 46.448C73.793 50.248 69.558 52.778 64.721 52.778 59.886 52.778 55.65 50.249 53.235 46.448L42.063 51.074A8.9 8.9 0 0 0 39.956 54.439z"></path><circle fill="none" stroke="#dbdbdb" stroke-linecap="round" stroke-linejoin="round" stroke-miterlimit="10" cx="34.444" cy="70" r="3.3"></circle></svg></g></svg></g><g></g></svg></g></svg></g></svg></g></svg></g><defs></defs></svg><rect width="333.90454557049503" height="333.90454557049503" fill="none" stroke="none" visibility="hidden"></rect></g></svg></g></svg>